# xmcd CD database file
#
# Track frame offsets:
#	150
#	22507
#	46207
#
# Disc length: 911 seconds
#
# Revision: 0
# Processed by: cddbd v1.5.1PL0 Copyright (c) Steve Scherf et al.
# Submitted via: CDex 1.51
#
DISCID=12038d03
DTITLE=今野登茂子 - BLACK CHRISTMAS
DYEAR=1994
DGENRE=JPop
TTITLE0=BLACK CHRISTMAS
TTITLE1=ゆらり
TTITLE2=BLACK CHRISTMAS（カラオケ)
EXTD=YEAR: 1994
EXTT0=
EXTT1=
EXTT2=
PLAYORDER=
